# xmcd CD database file
#
# Track frame offsets:
#	150
#	18957
#	36710
#	54226
#	70280
#	84886
#	100323
#	125191
#	143694
#	160657
#	178782
#	199397
#	214701
#	241256
#	261315
#
# Disc length: 3726 seconds
#
# Revision: 0
# Processed by: cddbd v1.5.2PL0 Copyright (c) Steve Scherf et al.
# Submitted via: CDex 2.09
#
DISCID=d80e8c0f
DTITLE=Yanni - Truth of Touch
DYEAR=2011
DGENRE=New Age
TTITLE0=Truth of Touch
TTITLE1=Echo of a Dream
TTITLE2=Seasons
TTITLE3=Voyage
TTITLE4=Flash of Color
TTITLE5=Vertigo
TTITLE6=Nine
TTITLE7=Can't Wait
TTITLE8=Guilty Pleasure
TTITLE9=O Luce Che Brilla Nell 'Oscurita
TTITLE10=I'm So
TTITLE11=Long Way Home
TTITLE12=Yanni and Arturo
TTITLE13=Mist of a Kiss
TTITLE14=Secret
EXTD=YEAR: 2011
EXTT0=
EXTT1=
EXTT2=
EXTT3=
EXTT4=
EXTT5=
EXTT6=
EXTT7=
EXTT8=
EXTT9=
EXTT10=
EXTT11=
EXTT12=
EXTT13=
EXTT14=
PLAYORDER=
